<svg id="svg" version="1.1" xmlns="http://www.w3.org/2000/svg" xmlns:xlink="http://www.w3.org/1999/xlink" width="400" height="394.2492012779553" viewBox="0, 0, 400,394.2492012779553"><g id="svgg"><path id="path0" d="M-0.000 106.763 C -0.000 165.482,0.077 213.449,0.170 213.355 C 1.105 212.420,2.235 204.919,2.239 199.613 C 2.252 185.081,4.712 175.029,10.875 164.330 C 14.458 158.109,17.003 154.462,30.235 136.581 C 56.035 101.719,62.469 92.312,71.095 76.837 C 80.381 60.179,86.098 53.339,94.329 49.042 L 96.165 48.083 96.165 45.779 C 96.167 40.214,99.245 36.585,105.082 35.267 L 107.271 34.772 107.436 33.542 C 108.261 27.390,112.509 24.556,124.903 21.888 C 134.424 19.839,140.091 17.177,156.230 7.177 C 160.535 4.510,164.884 1.862,165.895 1.293 C 166.905 0.724,167.732 0.200,167.732 0.129 C 167.732 0.058,129.992 0.000,83.866 0.000 L 0.000 0.000 -0.000 106.763 M165.477 2.335 C 163.290 3.620,158.482 6.541,154.792 8.827 C 139.696 18.178,134.463 20.543,123.876 22.804 C 113.040 25.118,109.022 27.841,108.120 33.484 L 107.917 34.753 109.949 34.986 C 116.724 35.761,135.781 44.250,146.486 51.261 C 154.267 56.358,162.417 63.988,166.961 70.429 C 168.389 72.453,170.786 66.544,171.557 59.105 C 172.077 54.084,172.388 52.745,174.451 46.645 C 175.903 42.355,176.532 39.875,177.157 35.987 C 178.751 26.076,181.007 22.448,185.384 22.755 C 188.622 22.983,189.728 24.763,190.401 30.831 C 190.577 32.412,191.170 35.791,191.719 38.339 C 194.251 50.089,194.742 51.454,199.071 58.783 C 207.830 73.612,211.264 84.740,212.016 100.731 L 212.239 105.455 213.829 106.721 L 215.419 107.987 221.687 107.994 C 228.771 108.002,229.985 108.198,238.512 110.711 C 246.398 113.035,247.773 113.955,250.665 118.842 C 252.452 121.861,253.221 122.364,256.049 122.364 C 258.040 122.364,259.605 123.417,260.655 125.463 C 260.961 126.060,261.924 127.086,262.794 127.744 C 263.899 128.579,264.740 129.612,265.579 131.164 C 267.256 134.264,268.036 134.889,270.088 134.781 L 271.720 134.694 272.603 136.436 C 275.314 141.782,274.908 153.422,271.896 156.709 C 271.413 157.236,270.746 158.350,270.413 159.184 C 270.081 160.018,269.629 160.701,269.409 160.702 C 269.189 160.702,269.010 160.990,269.010 161.342 C 269.010 162.095,268.742 162.141,267.880 161.538 C 267.243 161.092,263.704 161.339,257.221 162.281 C 251.421 163.125,248.632 166.575,251.157 169.785 C 252.511 171.507,257.724 173.123,260.554 172.699 L 261.981 172.485 261.981 173.591 C 261.981 174.529,262.125 174.748,262.920 175.025 C 264.695 175.644,264.539 178.265,262.482 182.418 C 261.914 183.566,261.106 185.367,260.688 186.422 C 258.850 191.052,256.477 192.223,249.671 191.858 L 245.440 191.632 247.433 193.675 C 249.717 196.015,250.765 198.297,251.037 201.518 C 251.130 202.616,251.261 203.514,251.329 203.514 C 251.396 203.514,251.987 203.163,252.643 202.734 C 253.298 202.304,254.762 201.697,255.897 201.385 C 257.707 200.887,258.283 200.513,260.577 198.352 C 267.998 191.363,273.258 197.329,273.309 212.794 L 273.323 217.121 271.979 219.810 C 270.415 222.939,270.396 222.744,272.213 222.294 C 276.551 221.222,283.873 222.088,288.608 224.235 L 290.735 225.200 290.735 224.329 C 290.735 217.110,289.014 160.726,288.335 145.687 C 285.040 72.750,278.275 43.561,261.567 30.193 C 252.499 22.937,245.996 22.848,240.234 29.899 C 237.920 32.730,236.686 33.546,234.718 33.546 C 232.076 33.546,230.990 32.182,229.694 27.236 C 228.495 22.659,226.504 20.817,220.288 18.534 C 210.570 14.966,207.920 13.591,204.448 10.316 C 201.842 7.857,200.275 5.417,199.285 2.277 L 198.568 0.000 184.010 0.000 L 169.452 0.000 165.477 2.335 M199.361 0.124 C 199.361 0.996,200.905 4.784,201.860 6.253 C 204.992 11.072,209.473 14.002,218.592 17.195 C 227.040 20.153,229.203 22.043,230.491 27.598 C 232.040 34.278,235.264 34.827,239.956 29.209 C 244.355 23.943,247.628 22.895,253.436 24.893 C 267.049 29.577,275.968 43.883,281.619 70.102 C 282.902 76.057,282.628 75.633,284.561 74.653 C 290.679 71.553,303.165 71.376,309.553 74.299 C 310.503 74.734,311.312 75.051,311.353 75.005 C 312.263 73.955,313.072 64.412,312.485 61.661 C 311.836 58.621,309.104 51.590,308.600 51.663 C 308.351 51.699,307.284 52.057,306.230 52.459 C 304.576 53.089,303.722 53.189,300.000 53.189 C 292.538 53.189,290.260 51.979,281.949 43.599 C 277.123 38.734,275.067 36.949,269.169 32.504 C 257.735 23.887,257.023 23.112,247.604 9.009 L 241.693 0.160 220.527 0.078 C 208.886 0.032,199.361 0.053,199.361 0.124 M242.492 0.148 C 242.492 0.229,243.326 1.487,244.344 2.943 C 245.363 4.399,247.997 8.323,250.197 11.661 C 257.108 22.147,258.807 23.927,269.804 32.189 C 275.720 36.635,277.700 38.350,282.268 42.987 C 290.421 51.261,292.866 52.567,300.160 52.541 C 303.904 52.528,304.533 52.441,306.550 51.654 C 307.780 51.175,308.906 50.750,309.053 50.711 C 309.416 50.613,310.796 54.167,313.404 61.921 C 314.605 65.490,315.659 68.482,315.747 68.569 C 315.990 68.812,318.156 65.102,319.038 62.931 C 320.135 60.231,320.760 57.315,320.924 54.138 C 321.063 51.425,321.065 51.420,322.592 49.668 C 326.627 45.039,329.393 37.939,329.393 32.208 C 329.393 30.731,333.691 11.155,336.283 0.829 L 336.491 0.000 289.492 0.000 C 263.642 0.000,242.492 0.066,242.492 0.148 M337.061 0.189 C 337.061 0.293,335.479 7.162,333.546 15.452 C 331.050 26.158,330.032 31.106,330.032 32.529 C 330.032 38.288,327.390 45.017,323.173 50.000 C 321.871 51.538,321.813 51.701,321.595 54.414 C 321.180 59.585,319.272 65.051,316.630 68.640 C 315.407 70.300,315.401 70.295,314.331 66.988 L 313.485 64.377 313.450 66.294 C 313.406 68.598,312.934 71.712,312.255 74.167 L 311.756 75.969 309.792 75.082 C 303.183 72.097,291.321 72.115,285.158 75.120 C 282.720 76.309,282.831 75.694,283.867 82.290 C 287.337 104.369,289.308 139.511,291.086 211.019 C 291.445 225.455,291.463 225.721,292.131 226.167 C 298.308 230.296,299.182 237.946,294.300 245.149 C 290.243 251.135,289.815 251.877,289.283 253.843 C 288.561 256.509,288.781 260.319,289.919 264.856 C 291.677 271.867,291.386 274.105,288.133 278.594 C 285.042 282.860,284.855 283.440,285.101 288.030 C 285.333 292.380,284.994 294.137,283.557 296.021 C 283.094 296.628,282.758 297.125,282.811 297.124 C 282.864 297.124,283.626 296.852,284.505 296.518 C 289.228 294.727,293.266 294.166,303.195 293.921 C 313.909 293.658,314.848 293.482,319.169 290.934 C 320.487 290.157,323.293 288.598,325.405 287.469 C 327.516 286.341,331.901 283.830,335.149 281.891 C 346.335 275.211,347.730 274.734,356.869 274.455 C 366.297 274.168,366.898 273.738,366.920 267.269 C 366.932 263.690,366.997 263.293,367.836 261.636 L 368.739 259.853 366.975 255.662 C 353.913 224.637,349.713 205.479,348.879 173.120 C 348.377 153.613,347.887 150.157,343.288 133.653 C 339.011 118.306,338.460 111.860,340.275 98.403 C 342.099 84.880,341.612 79.325,337.348 65.048 C 333.823 53.244,332.986 45.409,333.524 29.233 C 333.866 18.950,334.226 17.409,336.894 14.807 C 339.782 11.989,341.851 11.886,351.179 14.094 C 360.181 16.224,361.695 16.153,369.010 13.257 C 375.988 10.494,377.638 10.381,384.984 12.168 C 389.142 13.179,396.325 13.759,398.841 13.288 L 400.000 13.070 400.000 6.535 L 400.000 0.000 368.530 0.000 C 351.222 0.000,337.061 0.085,337.061 0.189 M375.373 11.806 C 374.568 11.952,371.905 12.861,369.455 13.826 C 361.990 16.765,359.689 16.900,351.630 14.870 C 341.301 12.269,338.030 12.786,335.781 17.377 C 334.288 20.423,334.099 22.943,334.279 37.312 C 334.477 53.170,334.419 52.801,339.377 69.649 C 342.148 79.066,342.549 86.869,340.877 98.882 C 339.042 112.071,339.701 118.346,344.862 136.832 C 348.351 149.331,349.049 154.703,349.521 172.684 C 350.386 205.621,355.364 227.865,368.533 257.643 L 369.342 259.471 370.341 258.630 C 371.492 257.662,373.715 256.507,377.769 254.772 C 379.915 253.853,381.119 253.083,382.652 251.650 C 384.797 249.643,384.526 250.117,389.712 239.291 C 391.913 234.697,394.451 231.628,397.953 229.325 L 400.000 227.979 399.999 212.951 C 399.998 198.343,399.976 197.812,399.220 193.930 C 396.443 179.658,396.400 170.820,399.078 164.892 L 400.000 162.851 399.999 88.374 L 399.999 13.898 394.488 13.881 C 389.409 13.865,388.649 13.783,384.777 12.841 C 380.064 11.694,377.527 11.414,375.373 11.806 M182.837 23.952 C 180.272 25.516,179.017 28.576,177.789 36.262 C 177.217 39.836,176.579 42.479,175.667 45.048 C 173.441 51.320,172.890 53.496,172.374 58.051 C 171.546 65.354,170.796 68.077,168.989 70.349 C 168.473 70.997,168.051 71.652,168.051 71.803 C 168.051 72.251,171.254 77.203,174.070 81.107 C 178.708 87.538,179.804 90.570,180.152 97.923 C 180.431 103.836,180.619 104.280,184.494 108.169 C 188.201 111.891,190.557 112.620,194.758 111.345 C 196.616 110.781,196.805 110.766,196.805 111.173 C 196.805 111.808,193.252 112.542,190.920 112.389 C 187.886 112.191,186.561 111.450,183.583 108.284 C 179.961 104.434,179.791 104.006,179.516 98.083 C 179.169 90.606,178.166 87.960,172.852 80.511 C 171.285 78.315,169.327 75.384,168.501 73.999 C 160.285 60.226,146.103 49.766,121.241 39.142 C 109.100 33.954,101.413 34.539,97.942 40.916 C 93.494 49.089,104.531 72.688,121.937 92.223 C 123.554 94.037,125.914 96.740,127.182 98.229 C 129.828 101.337,130.703 101.998,134.653 103.873 C 138.270 105.589,139.688 107.003,141.664 110.863 C 144.743 116.875,145.902 118.137,150.932 120.956 C 155.483 123.506,156.628 125.417,157.968 132.703 C 158.784 137.136,159.834 138.668,162.695 139.595 C 167.089 141.021,165.540 145.116,159.425 148.243 C 156.404 149.787,155.128 150.940,153.203 153.864 C 149.897 158.884,147.266 161.032,138.179 166.134 C 127.733 171.999,125.327 174.144,114.558 187.196 C 111.865 190.460,108.714 194.209,107.556 195.527 C 104.704 198.773,103.750 200.688,102.227 206.224 C 100.557 212.295,100.000 213.339,96.333 217.262 C 93.613 220.171,93.070 220.964,91.232 224.716 C 89.698 227.847,88.519 229.716,86.592 232.071 C 77.831 242.781,77.735 249.992,86.239 258.483 C 93.300 265.532,95.375 266.289,104.121 265.007 C 108.086 264.425,108.545 264.451,116.289 265.705 C 120.404 266.370,121.790 266.467,124.526 266.281 C 129.490 265.942,130.162 266.208,133.913 269.987 C 137.877 273.980,136.510 273.711,153.994 273.938 C 189.751 274.402,196.264 272.158,201.279 257.650 C 204.041 249.658,205.266 247.698,212.347 239.946 C 216.102 235.835,217.533 233.368,218.562 229.227 C 220.786 220.280,224.803 216.454,231.974 216.454 L 235.993 216.454 237.725 215.136 C 240.640 212.918,241.979 212.586,243.923 213.599 C 244.523 213.912,244.916 213.973,244.986 213.763 C 245.472 212.306,248.069 207.522,249.075 206.230 C 251.990 202.489,249.549 194.718,244.649 192.139 C 242.854 191.195,243.659 191.030,249.601 191.123 C 256.860 191.236,258.143 190.669,259.872 186.579 C 260.205 185.789,261.111 183.752,261.885 182.052 C 262.744 180.166,263.317 178.421,263.356 177.579 L 263.419 176.198 259.425 176.257 C 257.228 176.290,253.850 176.361,251.917 176.417 C 247.407 176.546,246.266 176.063,245.000 173.486 C 243.944 171.338,243.388 170.927,241.544 170.927 C 238.937 170.927,237.734 169.108,238.203 165.877 C 238.627 162.964,239.425 162.096,242.672 161.016 C 243.754 160.655,245.199 159.885,245.882 159.303 C 247.815 157.658,248.410 157.456,252.203 157.152 C 254.154 156.995,257.390 156.570,259.394 156.206 C 264.773 155.229,267.121 155.769,268.886 158.388 L 269.576 159.412 269.972 158.458 C 270.189 157.933,270.792 157.037,271.312 156.468 C 273.375 154.205,273.650 153.101,273.565 147.444 C 273.428 138.343,272.608 135.747,269.781 135.460 C 267.609 135.240,266.630 134.517,265.516 132.309 C 264.375 130.049,263.169 128.569,261.955 127.942 C 261.456 127.684,260.670 126.829,260.209 126.042 C 258.859 123.738,257.767 123.003,255.695 123.003 C 253.532 123.003,252.127 122.370,251.255 121.005 C 246.817 114.050,246.517 113.813,239.457 111.699 C 229.874 108.830,229.939 108.841,222.023 108.645 L 214.813 108.466 213.143 107.027 L 211.474 105.588 211.326 101.116 C 210.959 90.056,208.576 79.460,204.321 69.968 C 202.654 66.248,202.058 65.143,198.166 58.551 C 194.903 53.024,193.616 49.914,192.515 44.888 C 192.052 42.780,191.320 39.509,190.886 37.620 C 190.453 35.731,189.946 32.784,189.760 31.070 C 189.004 24.126,186.602 21.657,182.837 23.952 M117.252 43.433 C 126.743 46.694,132.535 50.873,140.726 60.373 C 145.253 65.623,146.969 67.217,151.597 70.471 C 156.538 73.945,159.965 78.410,164.232 86.930 C 171.446 101.337,172.609 107.321,169.488 113.978 C 168.127 116.880,167.781 116.871,166.475 113.898 C 163.056 106.119,157.297 100.317,147.125 94.405 C 138.523 89.405,134.768 85.946,131.325 79.849 C 127.205 72.554,125.593 70.484,121.380 67.071 C 117.842 64.206,117.152 63.015,116.788 59.145 C 116.386 54.860,115.467 53.708,110.894 51.753 C 105.992 49.658,104.051 47.960,103.139 44.966 C 102.688 43.488,102.713 43.464,105.358 42.753 C 108.763 41.839,113.378 42.103,117.252 43.433 M105.917 43.327 C 103.406 43.934,103.300 44.083,104.141 45.822 C 105.139 47.882,106.950 49.292,110.627 50.870 C 116.023 53.187,116.938 54.332,117.545 59.534 C 117.962 63.103,118.456 63.905,121.927 66.656 C 125.391 69.401,127.958 72.611,130.990 77.992 C 135.336 85.702,137.714 87.976,147.692 93.965 C 158.022 100.165,162.210 104.274,166.328 112.252 L 167.960 115.413 168.494 114.655 C 171.113 110.939,170.866 103.497,167.884 96.281 C 162.552 83.380,157.617 75.805,151.683 71.417 C 145.828 67.088,145.037 66.369,141.129 61.827 C 133.301 52.729,129.429 49.517,122.249 46.163 C 115.540 43.030,110.654 42.181,105.917 43.327 M92.802 50.740 C 85.021 55.787,80.241 61.717,72.025 76.518 C 62.793 93.150,58.279 99.740,28.569 139.956 C 5.953 170.569,3.860 175.394,2.874 199.201 C 2.539 207.300,2.166 209.923,0.825 213.617 L 0.000 215.892 0.000 272.955 L 0.000 330.018 2.157 331.799 C 6.916 335.728,11.179 337.028,17.558 336.495 C 23.984 335.957,25.869 336.582,29.119 340.328 C 38.232 350.834,40.514 351.949,53.834 352.400 C 59.995 352.609,63.502 352.892,67.412 353.496 C 70.312 353.944,75.056 354.453,77.955 354.627 C 89.985 355.350,91.518 355.730,101.971 360.574 C 110.751 364.642,115.259 366.111,121.016 366.781 C 125.586 367.312,125.578 367.321,123.107 364.543 C 112.028 352.086,109.547 341.488,114.711 328.679 C 117.784 321.058,116.000 317.900,107.820 316.480 C 96.196 314.462,91.861 310.035,90.746 299.044 C 89.167 283.482,98.395 270.240,112.559 267.742 C 118.088 266.768,118.164 266.674,114.000 265.977 C 109.905 265.291,106.238 265.235,103.195 265.812 C 95.872 267.200,92.674 265.907,85.439 258.632 C 81.432 254.603,80.185 252.544,79.529 248.874 C 79.058 246.237,78.537 245.798,73.829 244.080 C 67.415 241.740,60.386 241.621,54.210 243.750 C 52.946 244.185,52.388 244.265,52.472 244.000 C 52.540 243.786,53.521 243.302,54.652 242.926 C 61.248 240.733,69.670 241.259,76.005 244.261 C 78.851 245.609,78.789 245.648,77.582 243.290 C 75.385 239.001,72.423 235.466,68.751 232.753 C 65.857 230.615,65.504 229.682,68.309 231.588 C 72.193 234.226,75.545 238.074,78.086 242.812 C 79.340 245.150,79.543 245.391,79.547 244.547 C 79.555 243.182,80.411 240.436,81.506 238.268 C 83.750 233.820,81.447 227.707,74.910 220.767 C 70.313 215.886,69.189 213.444,69.177 208.307 C 69.169 204.982,70.149 200.958,70.965 200.958 C 71.371 200.958,71.323 201.235,70.577 203.195 C 68.336 209.083,69.812 214.245,75.502 220.415 C 80.023 225.318,81.898 228.595,82.837 233.234 L 83.232 235.189 85.888 231.892 C 88.681 228.425,89.301 227.413,91.342 222.997 C 92.368 220.776,93.169 219.668,95.691 216.978 C 99.300 213.130,100.162 211.519,101.619 205.911 C 102.787 201.410,103.933 198.868,105.820 196.590 C 106.573 195.680,108.980 192.805,111.169 190.200 C 113.359 187.595,116.470 183.882,118.084 181.949 C 124.548 174.205,128.898 170.568,137.390 165.809 C 146.896 160.482,149.577 158.311,152.769 153.355 C 154.717 150.330,155.456 149.681,159.540 147.417 C 165.471 144.127,166.088 141.866,161.605 139.850 C 159.364 138.842,158.351 137.428,157.656 134.337 C 157.381 133.111,156.877 130.892,156.536 129.404 C 155.489 124.825,154.367 123.573,148.223 120.128 C 145.664 118.693,143.886 116.498,141.240 111.507 C 138.844 106.989,138.020 106.164,134.037 104.297 C 130.354 102.570,129.329 101.767,126.287 98.222 C 124.920 96.628,122.166 93.465,120.167 91.193 C 108.745 78.209,100.538 63.970,96.931 50.879 C 96.261 48.446,96.336 48.449,92.802 50.740 M212.886 129.903 C 213.710 130.184,215.063 131.029,215.893 131.780 L 217.401 133.146 216.297 133.817 C 213.847 135.307,210.474 135.422,207.207 134.126 C 206.318 133.773,204.635 133.319,203.467 133.116 L 201.343 132.748 202.776 131.651 C 205.553 129.525,209.681 128.811,212.886 129.903 M268.198 138.011 C 268.760 138.358,269.385 139.005,269.587 139.449 C 270.054 140.474,269.514 140.516,268.853 139.506 C 267.796 137.893,265.014 137.560,261.811 138.662 C 260.650 139.061,259.830 139.191,259.644 139.005 C 258.517 137.878,266.485 136.952,268.198 138.011 M266.691 139.537 C 267.323 140.100,268.244 142.725,267.922 143.047 C 267.827 143.142,266.989 142.697,266.060 142.058 C 264.856 141.228,264.029 140.895,263.176 140.895 C 261.706 140.895,261.651 140.447,263.019 139.613 C 264.304 138.830,265.861 138.797,266.691 139.537 M258.626 156.697 C 256.518 157.114,253.286 157.558,251.446 157.684 L 248.099 157.914 246.409 159.563 L 244.719 161.213 245.642 162.098 L 246.566 162.982 248.219 161.965 C 250.564 160.522,251.429 160.371,258.946 160.082 L 265.655 159.824 267.137 160.718 L 268.620 161.612 268.815 160.638 C 269.093 159.249,269.094 159.255,268.173 158.160 C 266.314 155.951,264.111 155.613,258.626 156.697 M399.078 166.589 C 397.524 170.742,397.369 178.721,398.680 187.061 C 399.895 194.786,399.934 194.548,399.968 179.313 C 399.986 171.362,399.938 164.856,399.863 164.856 C 399.788 164.856,399.435 165.636,399.078 166.589 M191.129 172.444 C 193.085 177.901,198.052 183.083,203.885 185.753 C 208.820 188.011,211.850 188.305,224.303 187.731 C 230.632 187.440,236.369 187.957,236.932 188.869 C 237.280 189.431,236.899 189.438,234.970 188.905 C 232.942 188.344,228.876 188.255,216.613 188.502 C 206.264 188.710,199.716 185.971,194.265 179.152 C 192.667 177.153,190.096 172.395,190.096 171.437 C 190.096 170.457,190.589 170.938,191.129 172.444 M44.699 172.604 C 42.459 184.187,48.402 199.238,59.283 209.536 C 62.492 212.574,63.235 213.889,60.401 211.516 C 52.523 204.920,46.239 194.375,44.233 184.382 C 43.677 181.615,43.654 172.528,44.200 171.644 C 44.709 170.822,44.953 171.292,44.699 172.604 M259.469 173.321 C 257.004 174.090,252.192 174.258,249.885 173.657 C 247.544 173.047,247.724 172.986,247.445 174.479 C 247.252 175.511,247.310 175.656,247.975 175.821 C 250.158 176.364,253.029 176.399,255.616 175.914 C 257.123 175.631,259.100 175.399,260.009 175.399 L 261.661 175.399 261.661 174.121 C 261.661 172.698,261.572 172.665,259.469 173.321 M263.905 196.523 C 263.469 196.696,262.104 197.815,260.870 199.008 C 258.891 200.922,258.318 201.281,256.012 202.046 C 252.523 203.204,251.218 204.224,249.044 207.490 C 246.250 211.690,245.279 214.224,245.841 215.853 C 246.432 217.571,246.094 218.925,244.477 221.306 C 241.937 225.046,241.485 228.955,243.173 232.588 C 245.438 237.463,248.009 237.899,256.489 234.844 C 260.798 233.292,264.539 232.588,268.471 232.588 C 274.327 232.588,276.450 229.998,272.389 227.809 C 269.453 226.226,269.141 223.975,271.277 219.780 C 273.861 214.706,272.685 200.639,269.431 197.696 C 267.975 196.379,265.553 195.865,263.905 196.523 M240.146 214.215 C 239.647 214.476,238.803 215.055,238.271 215.503 C 236.359 217.112,235.732 217.272,231.712 217.179 C 225.316 217.032,221.449 220.706,219.313 228.958 C 217.860 234.569,217.072 235.853,211.132 242.292 C 205.757 248.119,204.658 250.009,201.563 258.753 C 198.554 267.254,196.384 269.597,189.457 271.825 C 181.768 274.298,172.301 274.965,150.930 274.537 L 138.121 274.281 136.395 273.208 C 133.023 271.111,130.342 272.174,124.874 277.778 C 120.355 282.409,119.092 283.217,112.905 285.433 C 110.288 286.370,107.217 287.530,106.080 288.011 C 102.297 289.611,101.363 289.209,97.364 284.265 C 94.673 280.939,94.863 280.984,93.809 283.414 C 90.246 291.629,90.568 303.073,94.528 308.955 C 96.988 312.610,99.902 314.206,106.550 315.538 C 116.801 317.592,118.847 320.657,115.392 328.784 C 110.281 340.805,112.588 351.337,122.979 363.418 L 125.351 366.175 126.889 363.199 C 127.734 361.563,129.920 358.235,131.747 355.805 C 137.100 348.681,140.191 342.900,138.465 343.244 C 135.273 343.879,120.212 345.238,119.893 344.920 C 119.505 344.532,120.090 344.426,124.456 344.090 C 142.531 342.698,154.578 340.247,180.990 332.585 C 194.504 328.665,196.652 328.096,209.904 324.920 C 221.992 322.024,227.867 320.408,234.345 318.199 C 242.064 315.568,245.785 314.006,262.333 306.454 C 265.426 305.042,269.811 303.136,272.077 302.219 C 283.064 297.771,284.547 296.110,284.406 288.413 C 284.305 282.888,284.409 282.547,287.509 278.293 C 290.755 273.838,290.996 271.982,289.232 265.016 C 287.183 256.923,287.821 253.491,292.710 246.306 C 296.805 240.289,297.743 236.396,296.134 232.096 C 293.848 225.986,283.290 221.423,274.413 222.709 C 272.935 222.923,271.474 223.108,271.166 223.119 C 269.605 223.178,270.688 226.224,272.615 227.193 C 277.484 229.641,275.084 233.217,268.563 233.233 C 264.559 233.243,262.014 233.732,256.265 235.598 C 248.348 238.168,247.210 238.184,244.576 235.755 C 240.763 232.240,240.501 226.164,243.938 220.931 C 246.856 216.489,244.338 212.029,240.146 214.215 M398.403 229.768 C 394.335 232.497,391.755 235.943,388.918 242.436 C 385.336 250.633,383.597 252.727,378.338 255.170 C 376.634 255.962,374.449 256.984,373.482 257.441 C 369.059 259.533,367.206 262.620,367.538 267.345 C 367.832 271.536,366.761 273.716,363.984 274.578 L 363.271 274.800 364.345 276.937 C 364.936 278.112,366.029 280.799,366.773 282.907 C 369.060 289.386,369.908 290.802,376.339 298.882 C 378.297 301.342,381.295 305.558,383.001 308.251 C 386.427 313.659,388.939 316.474,393.112 319.583 C 395.545 321.395,399.541 323.569,399.857 323.253 C 399.937 323.173,399.966 301.889,399.921 275.956 L 399.840 228.804 398.403 229.768 M28.115 257.664 C 28.115 257.749,27.073 258.344,25.799 258.985 C 18.529 262.643,12.866 269.070,10.841 275.958 C 10.374 277.547,9.750 277.806,10.072 276.278 C 10.983 271.947,15.725 265.128,20.396 261.433 C 21.589 260.490,11.210 261.493,8.242 262.609 C 5.243 263.736,1.597 267.680,1.597 269.798 C 1.597 270.067,1.388 270.288,1.132 270.288 C 0.037 270.288,2.105 266.266,4.149 264.419 C 6.885 261.947,9.259 261.177,15.628 260.698 C 20.589 260.325,22.425 259.904,25.080 258.530 C 26.821 257.630,28.115 257.260,28.115 257.664 M121.246 267.093 C 119.313 267.208,117.013 267.479,116.134 267.697 C 115.256 267.914,113.357 268.298,111.915 268.550 C 105.768 269.624,99.997 273.403,96.295 278.778 L 95.129 280.470 95.887 281.402 C 96.304 281.915,97.466 283.346,98.469 284.584 C 101.650 288.508,102.609 288.862,105.981 287.353 C 106.997 286.899,109.696 285.874,111.981 285.077 C 118.534 282.789,119.422 282.239,124.209 277.513 C 128.688 273.091,130.261 272.032,132.929 271.644 L 134.567 271.406 132.520 269.441 C 129.636 266.672,129.342 266.611,121.246 267.093 M349.386 275.744 C 346.006 276.579,342.110 278.468,335.076 282.681 C 331.862 284.605,328.846 286.378,328.373 286.620 C 327.563 287.035,327.648 287.063,329.822 287.092 C 337.588 287.198,343.043 291.831,350.477 304.633 C 356.599 315.176,366.297 326.366,372.355 329.875 C 377.005 332.569,383.813 332.041,397.364 327.935 L 400.000 327.136 400.000 325.575 L 400.000 324.013 398.452 323.499 C 393.212 321.758,387.100 315.969,381.919 307.840 C 380.245 305.213,377.256 301.044,375.278 298.576 C 369.366 291.204,368.324 289.451,366.158 283.227 C 365.425 281.118,364.364 278.458,363.802 277.316 L 362.780 275.240 357.348 275.179 C 352.885 275.130,351.466 275.230,349.386 275.744 M327.670 287.874 C 325.573 288.230,324.628 288.628,321.246 290.583 C 314.871 294.269,314.909 294.261,303.195 294.578 C 291.378 294.897,284.556 296.276,280.018 299.262 C 279.132 299.845,275.826 301.384,272.670 302.682 C 269.515 303.981,262.546 307.054,257.183 309.513 C 238.564 318.050,230.391 320.823,209.425 325.717 C 198.923 328.169,194.831 329.263,179.393 333.746 C 169.019 336.758,154.516 340.575,153.445 340.575 C 152.771 340.575,151.194 342.497,150.132 344.615 C 148.349 348.167,148.528 351.067,150.700 353.854 L 151.597 355.006 154.211 354.804 C 159.601 354.389,163.751 353.061,171.565 349.255 C 179.420 345.429,189.589 342.750,189.610 344.502 C 189.615 344.927,188.634 345.510,185.783 346.777 C 183.674 347.713,178.625 350.126,174.564 352.139 C 163.398 357.670,158.636 358.816,154.033 357.078 C 153.264 356.787,152.600 356.550,152.557 356.550 C 152.513 356.550,152.388 357.113,152.278 357.801 C 152.119 358.794,151.741 359.338,150.449 360.437 C 145.144 364.946,144.331 366.052,143.761 369.532 C 143.056 373.846,143.907 374.682,148.279 373.968 C 149.929 373.699,154.153 373.333,157.668 373.155 C 166.773 372.694,169.067 372.162,175.237 369.082 C 179.834 366.788,180.737 366.490,184.173 366.140 C 186.831 365.869,187.392 365.678,191.232 363.729 C 196.047 361.285,197.984 360.896,200.981 361.768 C 204.512 362.795,204.394 362.940,198.650 364.643 C 195.790 365.491,187.947 368.186,181.220 370.634 C 163.474 377.090,162.748 377.233,153.332 376.137 L 148.358 375.558 148.678 376.406 C 148.904 377.005,148.876 377.767,148.581 378.996 C 147.381 383.999,148.968 384.392,169.010 384.064 C 172.927 384.000,175.440 384.117,177.405 384.455 C 181.125 385.096,187.197 384.011,192.957 381.676 L 196.618 380.192 201.424 380.184 C 204.067 380.180,210.327 379.904,215.335 379.571 C 224.057 378.991,224.962 378.978,224.503 379.437 C 224.168 379.772,207.256 380.802,201.842 380.817 L 196.816 380.831 192.897 382.386 C 190.642 383.281,187.653 384.188,185.858 384.522 C 184.142 384.842,182.849 385.203,182.983 385.325 C 183.309 385.621,188.427 386.191,192.971 386.437 C 198.709 386.748,245.028 385.571,251.096 384.961 C 261.206 383.943,269.946 378.038,280.373 365.181 C 286.746 357.322,287.021 357.151,293.770 356.861 C 298.195 356.671,298.831 356.563,302.077 355.451 C 310.280 352.639,318.252 352.088,333.067 353.308 C 345.130 354.303,348.602 354.425,353.195 354.018 C 360.636 353.360,371.768 351.133,379.825 348.691 C 382.162 347.983,383.220 347.877,382.693 348.404 C 382.016 349.081,368.750 352.379,362.160 353.509 C 357.637 354.284,356.267 354.633,357.738 354.633 C 361.058 354.633,368.071 358.382,372.771 362.670 C 377.269 366.774,379.060 367.492,381.689 366.244 C 384.520 364.901,385.457 361.644,385.167 354.153 C 384.822 345.227,385.373 343.757,391.690 336.741 C 396.500 331.400,398.907 328.435,398.433 328.435 C 398.251 328.435,396.317 328.924,394.135 329.522 C 376.472 334.363,373.540 333.626,362.137 321.486 C 356.120 315.079,354.859 313.386,350.301 305.591 C 342.014 291.420,335.736 286.505,327.670 287.874 M86.445 291.773 C 85.166 301.592,80.144 312.784,74.122 319.240 C 72.134 321.370,72.028 320.757,73.989 318.477 C 77.420 314.486,81.385 307.604,83.062 302.729 C 83.733 300.781,83.728 300.780,81.470 302.512 C 77.562 305.509,69.159 307.439,65.974 306.070 C 65.122 305.704,65.469 305.663,68.850 305.730 C 73.829 305.829,78.516 304.189,82.338 301.008 C 84.414 299.281,84.801 298.294,85.654 292.560 C 86.066 289.785,86.799 289.056,86.445 291.773 M86.581 304.098 C 86.581 304.785,84.577 311.387,83.689 313.622 C 80.268 322.236,74.240 330.981,67.777 336.704 C 64.107 339.953,64.776 338.737,68.928 334.612 C 77.339 326.254,83.571 315.191,85.770 304.712 C 85.935 303.927,86.581 303.437,86.581 304.098 M397.875 330.551 C 396.794 331.935,394.195 334.969,392.098 337.294 C 386.013 344.043,385.490 345.434,385.814 353.994 C 386.166 363.309,384.263 367.412,379.589 367.412 C 377.923 367.412,377.941 367.595,379.792 369.472 C 384.034 373.771,390.044 374.252,397.204 370.865 L 400.000 369.543 400.000 351.146 L 400.000 332.750 398.841 334.346 C 397.385 336.353,391.842 344.767,390.607 346.844 C 390.098 347.701,389.619 348.224,389.543 348.005 C 389.354 347.460,393.401 340.858,397.037 335.782 L 400.031 331.601 399.936 329.818 L 399.840 328.036 397.875 330.551 M0.000 362.602 L 0.000 394.249 57.856 394.249 L 115.712 394.249 114.006 392.908 C 109.524 389.384,106.910 385.772,105.401 381.020 C 104.127 377.008,103.305 375.348,100.834 371.792 L 98.882 368.983 96.590 369.106 C 93.263 369.286,91.461 370.288,87.166 374.347 C 80.729 380.430,78.566 380.609,68.850 375.865 C 62.016 372.529,59.719 371.905,54.215 371.891 C 49.056 371.878,46.925 370.552,45.884 366.708 C 45.211 364.222,44.528 363.485,42.129 362.660 C 39.107 361.620,38.364 361.085,37.052 359.008 C 33.940 354.077,33.181 353.536,28.914 353.202 C 25.239 352.914,23.509 352.462,22.057 351.410 C 17.453 348.075,17.683 341.256,22.503 338.209 C 24.537 336.924,24.592 336.937,18.378 337.180 C 10.404 337.491,7.236 336.616,2.267 332.727 L 0.000 330.954 0.000 362.602 M23.411 338.514 C 15.900 342.257,18.890 351.638,27.841 352.415 C 33.497 352.906,34.576 353.534,37.027 357.755 C 38.515 360.320,39.671 361.251,42.487 362.157 C 44.854 362.919,45.808 363.960,46.611 366.659 C 47.716 370.367,48.677 370.888,55.112 371.272 C 60.895 371.617,62.346 372.024,68.690 375.077 C 78.582 379.838,80.584 379.717,86.561 373.997 C 91.005 369.745,93.520 368.371,96.863 368.371 C 98.353 368.371,98.360 368.530,96.763 365.982 C 96.036 364.824,95.533 363.785,95.644 363.674 C 95.900 363.419,94.963 362.117,102.734 373.525 C 103.962 375.327,104.730 376.975,105.675 379.838 C 107.305 384.773,108.470 386.717,111.754 389.977 C 118.220 396.398,122.573 395.597,127.319 387.114 C 130.799 380.894,134.989 378.623,138.372 381.124 C 138.881 381.500,139.297 381.665,139.297 381.490 C 139.297 380.476,138.020 377.757,136.387 375.296 C 134.029 371.740,132.521 366.454,133.866 366.454 C 134.042 366.454,134.190 367.137,134.196 367.971 C 134.211 370.164,135.074 372.321,137.139 375.321 C 140.857 380.723,140.926 384.113,137.433 389.593 C 136.881 390.459,136.340 391.647,136.230 392.232 C 135.835 394.335,135.314 394.265,150.740 394.173 L 164.655 394.089 165.069 392.492 C 165.297 391.613,165.486 389.924,165.489 388.738 C 165.493 387.517,165.634 386.581,165.815 386.581 C 166.296 386.581,166.202 391.045,165.686 392.762 L 165.238 394.251 210.275 394.170 L 255.312 394.089 256.708 390.525 C 257.475 388.565,258.401 386.378,258.764 385.666 C 259.732 383.769,259.667 383.732,256.818 384.557 C 252.298 385.866,247.387 386.125,211.756 386.936 C 193.377 387.354,189.234 387.179,179.948 385.590 L 174.281 384.621 164.058 384.814 C 148.974 385.099,146.902 384.327,147.943 378.808 C 148.402 376.375,147.908 375.401,146.211 375.398 C 141.365 375.390,142.003 366.788,147.173 362.409 C 152.315 358.055,152.634 357.362,150.637 354.897 C 147.546 351.081,147.491 347.031,150.468 342.619 C 151.001 341.829,151.438 341.141,151.438 341.090 C 151.438 341.040,149.748 341.329,147.684 341.733 C 145.619 342.138,143.127 342.562,142.146 342.675 L 140.363 342.882 138.997 345.642 C 137.330 349.008,134.877 352.816,131.723 356.933 C 128.941 360.564,126.770 364.252,126.186 366.336 L 125.771 367.818 122.722 367.604 C 116.386 367.159,111.517 365.683,102.111 361.359 C 91.161 356.324,89.823 355.989,77.796 355.276 C 74.984 355.109,70.168 354.596,67.093 354.136 C 62.921 353.511,59.434 353.234,53.355 353.042 C 41.488 352.668,38.406 351.459,32.356 344.805 C 28.609 340.685,25.653 337.700,25.318 337.700 C 25.168 337.700,24.310 338.066,23.411 338.514 M184.665 345.225 C 180.501 346.118,177.035 347.392,171.246 350.154 C 164.300 353.468,161.269 354.485,156.096 355.236 L 152.287 355.789 154.179 356.400 C 159.232 358.033,163.119 357.062,174.920 351.217 C 179.137 349.128,183.954 346.816,185.623 346.080 C 188.905 344.632,188.618 344.376,184.665 345.225 M312.780 353.577 C 310.201 353.852,306.277 354.785,302.150 356.103 C 297.959 357.441,297.567 357.508,293.913 357.508 C 287.935 357.508,286.988 358.079,281.254 365.138 C 274.643 373.276,268.993 378.470,262.899 382.011 L 260.426 383.448 259.137 386.387 C 257.673 389.725,256.230 393.473,256.230 393.937 C 256.230 394.139,280.578 394.249,325.404 394.249 L 394.577 394.249 394.054 393.051 C 391.774 387.834,390.033 381.308,389.592 376.318 L 389.376 373.883 387.420 373.718 C 384.034 373.431,381.917 372.405,379.509 369.881 C 378.343 368.659,377.121 367.382,376.793 367.044 C 367.673 357.614,361.475 354.940,348.403 354.793 C 343.570 354.739,337.513 354.438,333.067 354.031 C 326.383 353.420,316.344 353.195,312.780 353.577 M195.208 362.598 C 194.241 362.919,192.313 363.840,190.923 364.645 C 188.353 366.135,186.845 366.571,182.977 366.939 C 181.214 367.107,180.082 367.504,176.907 369.068 C 169.420 372.755,167.149 373.325,158.105 373.791 C 146.802 374.374,146.118 374.712,154.509 375.567 C 163.124 376.446,163.631 376.342,180.192 370.284 C 185.375 368.388,192.204 366.017,195.367 365.014 C 198.530 364.012,201.334 363.114,201.597 363.020 C 203.787 362.233,197.549 361.822,195.208 362.598 M398.403 371.086 C 396.894 371.893,392.929 373.286,391.096 373.654 L 390.020 373.869 390.229 376.152 C 390.690 381.183,391.938 386.138,394.001 391.134 L 395.287 394.249 397.643 394.249 L 400.000 394.249 400.000 382.268 C 400.000 375.679,399.964 370.294,399.920 370.302 C 399.876 370.310,399.193 370.663,398.403 371.086 M133.017 381.604 C 131.107 382.493,129.554 384.304,127.637 387.876 C 126.906 389.238,125.518 391.110,124.391 392.252 L 122.423 394.249 129.023 394.249 L 135.623 394.249 135.623 392.732 C 135.623 391.461,135.895 390.772,137.293 388.498 C 140.814 382.774,138.504 379.049,133.017 381.604 " stroke="none" fill="#ffffff" fill-rule="evenodd"></path><path id="path1" d="M165.974 1.195 C 164.920 1.825,160.535 4.520,156.230 7.184 C 140.050 17.195,134.415 19.840,124.903 21.888 C 112.509 24.556,108.261 27.390,107.436 33.542 L 107.271 34.772 105.082 35.267 C 99.245 36.585,96.167 40.214,96.165 45.779 L 96.165 48.083 94.329 49.042 C 86.098 53.339,80.381 60.179,71.095 76.837 C 62.469 92.312,56.035 101.719,30.235 136.581 C 17.003 154.462,14.458 158.109,10.875 164.330 C 4.663 175.114,2.897 182.152,2.244 198.722 C 1.931 206.659,1.590 209.346,0.488 212.560 C 0.198 213.406,0.010 214.412,0.069 214.797 C 0.204 215.667,1.735 211.197,2.237 208.466 C 2.431 207.412,2.725 203.171,2.890 199.042 C 3.834 175.474,5.984 170.527,28.569 139.956 C 58.279 99.740,62.793 93.150,72.025 76.518 C 80.241 61.717,85.021 55.787,92.802 50.740 C 96.336 48.449,96.261 48.446,96.931 50.879 C 100.538 63.970,108.745 78.209,120.167 91.193 C 122.166 93.465,124.920 96.628,126.287 98.222 C 129.329 101.767,130.354 102.570,134.037 104.297 C 138.020 106.164,138.844 106.989,141.240 111.507 C 143.886 116.498,145.664 118.693,148.223 120.128 C 154.367 123.573,155.489 124.825,156.536 129.404 C 156.877 130.892,157.381 133.111,157.656 134.337 C 158.351 137.428,159.364 138.842,161.605 139.850 C 166.088 141.866,165.471 144.127,159.540 147.417 C 155.456 149.681,154.717 150.330,152.769 153.355 C 149.577 158.311,146.896 160.482,137.390 165.809 C 128.898 170.568,124.548 174.205,118.084 181.949 C 116.470 183.882,113.359 187.595,111.169 190.200 C 108.980 192.805,106.573 195.680,105.820 196.590 C 103.933 198.868,102.787 201.410,101.619 205.911 C 100.162 211.519,99.300 213.130,95.691 216.978 C 93.169 219.668,92.368 220.776,91.342 222.997 C 89.301 227.413,88.681 228.425,85.888 231.892 L 83.232 235.189 82.837 233.234 C 81.898 228.595,80.023 225.318,75.502 220.415 C 69.812 214.245,68.336 209.083,70.577 203.195 C 71.323 201.235,71.371 200.958,70.965 200.958 C 70.149 200.958,69.169 204.982,69.177 208.307 C 69.189 213.444,70.313 215.886,74.910 220.767 C 81.447 227.707,83.750 233.820,81.506 238.268 C 80.411 240.436,79.555 243.182,79.547 244.547 C 79.543 245.391,79.340 245.150,78.086 242.812 C 75.545 238.074,72.193 234.226,68.309 231.588 C 65.504 229.682,65.857 230.615,68.751 232.753 C 72.423 235.466,75.385 239.001,77.582 243.290 C 78.789 245.648,78.851 245.609,76.005 244.261 C 69.670 241.259,61.248 240.733,54.652 242.926 C 53.521 243.302,52.540 243.786,52.472 244.000 C 52.388 244.265,52.946 244.185,54.210 243.750 C 60.386 241.621,67.415 241.740,73.829 244.080 C 78.537 245.798,79.058 246.237,79.529 248.874 C 80.185 252.544,81.432 254.603,85.439 258.632 C 92.674 265.907,95.872 267.200,103.195 265.812 C 106.238 265.235,109.905 265.291,114.000 265.977 C 118.164 266.674,118.088 266.768,112.559 267.742 C 98.395 270.240,89.167 283.482,90.746 299.044 C 91.861 310.035,96.196 314.462,107.820 316.480 C 116.000 317.900,117.784 321.058,114.711 328.679 C 109.547 341.488,112.028 352.086,123.107 364.543 C 125.578 367.321,125.586 367.312,121.016 366.781 C 115.259 366.111,110.751 364.642,101.971 360.574 C 91.518 355.730,89.985 355.350,77.955 354.627 C 75.056 354.453,70.312 353.944,67.412 353.496 C 63.502 352.892,59.995 352.609,53.834 352.400 C 40.514 351.949,38.232 350.834,29.119 340.328 C 25.869 336.582,23.984 335.957,17.558 336.495 C 11.179 337.028,6.916 335.728,2.157 331.799 C 0.860 330.728,0.000 330.205,0.000 330.486 C -0.000 331.155,4.172 334.329,6.532 335.455 C 10.041 337.130,12.075 337.426,18.378 337.180 C 24.592 336.937,24.537 336.924,22.503 338.209 C 17.683 341.256,17.453 348.075,22.057 351.410 C 23.509 352.462,25.239 352.914,28.914 353.202 C 33.181 353.536,33.940 354.077,37.052 359.008 C 38.364 361.085,39.107 361.620,42.129 362.660 C 44.528 363.485,45.211 364.222,45.884 366.708 C 46.925 370.552,49.056 371.878,54.215 371.891 C 59.719 371.905,62.016 372.529,68.850 375.865 C 78.566 380.609,80.729 380.430,87.166 374.347 C 91.461 370.288,93.263 369.286,96.590 369.106 L 98.882 368.983 100.834 371.792 C 103.305 375.348,104.127 377.008,105.401 381.020 C 107.251 386.847,113.576 394.249,116.705 394.249 C 117.645 394.249,117.611 394.206,116.050 393.428 C 111.761 391.291,107.701 385.974,105.675 379.838 C 104.730 376.975,103.962 375.327,102.734 373.525 C 94.963 362.117,95.900 363.419,95.644 363.674 C 95.533 363.785,96.036 364.824,96.763 365.982 C 98.360 368.530,98.353 368.371,96.863 368.371 C 93.520 368.371,91.005 369.745,86.561 373.997 C 80.584 379.717,78.582 379.838,68.690 375.077 C 62.346 372.024,60.895 371.617,55.112 371.272 C 48.677 370.888,47.716 370.367,46.611 366.659 C 45.808 363.960,44.854 362.919,42.487 362.157 C 39.671 361.251,38.515 360.320,37.027 357.755 C 34.576 353.534,33.497 352.906,27.841 352.415 C 18.823 351.632,15.895 342.196,23.515 338.469 L 25.240 337.624 26.348 338.469 C 26.957 338.934,28.662 340.712,30.136 342.421 C 37.859 351.372,40.633 352.641,53.355 353.042 C 59.434 353.234,62.921 353.511,67.093 354.136 C 70.168 354.596,74.984 355.109,77.796 355.276 C 89.823 355.989,91.161 356.324,102.111 361.359 C 111.517 365.683,116.386 367.159,122.722 367.604 L 125.771 367.818 126.186 366.336 C 126.770 364.252,128.941 360.564,131.723 356.933 C 134.877 352.816,137.330 349.008,138.997 345.642 L 140.363 342.882 142.146 342.675 C 143.127 342.562,145.619 342.138,147.684 341.733 C 149.748 341.329,151.438 341.040,151.438 341.090 C 151.438 341.141,151.001 341.829,150.468 342.619 C 147.491 347.031,147.546 351.081,150.637 354.897 C 152.634 357.362,152.315 358.055,147.173 362.409 C 142.003 366.788,141.365 375.390,146.211 375.398 C 147.908 375.401,148.402 376.375,147.943 378.808 C 146.902 384.327,148.974 385.099,164.058 384.814 L 174.281 384.621 179.948 385.590 C 189.234 387.179,193.377 387.354,211.756 386.936 C 247.434 386.124,252.295 385.867,256.845 384.549 C 259.887 383.668,259.790 383.378,257.898 387.700 C 255.883 392.303,255.223 394.249,255.676 394.249 C 255.894 394.249,256.406 393.294,256.814 392.126 C 257.221 390.958,258.200 388.527,258.990 386.725 L 260.425 383.449 262.899 382.011 C 268.993 378.470,274.643 373.276,281.254 365.138 C 286.992 358.074,287.932 357.508,293.933 357.508 C 297.570 357.508,298.017 357.434,301.743 356.222 C 311.004 353.209,318.396 352.684,332.907 354.008 C 337.824 354.456,343.646 354.751,348.562 354.801 C 361.444 354.931,367.704 357.646,376.793 367.044 C 377.121 367.382,378.343 368.659,379.509 369.881 C 381.925 372.413,384.035 373.431,387.460 373.721 C 389.426 373.887,389.457 373.904,389.457 374.843 C 389.457 380.068,393.879 395.365,395.050 394.194 C 395.145 394.099,394.723 392.853,394.112 391.426 C 392.091 386.704,390.705 381.280,390.250 376.311 L 390.027 373.868 391.100 373.653 C 394.278 373.016,400.000 370.644,400.000 369.963 C 400.000 369.517,400.002 369.516,397.115 370.912 C 390.214 374.249,383.996 373.732,379.792 369.472 C 377.941 367.595,377.923 367.412,379.589 367.412 C 384.263 367.412,386.166 363.309,385.814 353.994 C 385.490 345.436,386.013 344.045,392.096 337.294 C 398.181 330.541,401.048 326.686,399.562 327.256 C 391.712 330.269,379.400 332.273,375.546 331.167 C 368.948 329.273,358.145 317.839,350.477 304.633 C 343.043 291.831,337.588 287.198,329.822 287.092 C 327.648 287.063,327.563 287.035,328.373 286.620 C 328.846 286.378,331.862 284.605,335.076 282.681 C 346.254 275.986,349.169 275.010,357.571 275.152 L 362.780 275.240 363.802 277.316 C 364.364 278.458,365.425 281.118,366.158 283.227 C 368.328 289.463,369.326 291.138,375.392 298.729 C 377.431 301.281,380.438 305.488,382.075 308.077 C 387.267 316.291,393.738 322.203,399.281 323.798 C 400.712 324.210,399.958 323.423,398.238 322.710 C 393.017 320.546,387.408 315.226,383.001 308.258 C 381.295 305.561,378.297 301.342,376.339 298.882 C 369.908 290.802,369.060 289.386,366.773 282.907 C 366.029 280.799,364.936 278.112,364.345 276.937 L 363.271 274.800 363.984 274.578 C 366.761 273.716,367.832 271.536,367.538 267.345 C 367.206 262.620,369.059 259.533,373.482 257.441 C 374.449 256.984,376.634 255.962,378.338 255.170 C 383.597 252.727,385.336 250.633,388.918 242.436 C 391.786 235.874,394.609 232.148,398.642 229.603 C 399.389 229.132,400.000 228.595,400.000 228.410 C 400.000 227.673,397.132 229.704,394.521 232.290 C 391.977 234.810,391.601 235.355,389.777 239.159 C 384.499 250.169,384.801 249.640,382.652 251.650 C 381.119 253.083,379.915 253.853,377.769 254.772 C 373.715 256.507,371.492 257.662,370.341 258.630 L 369.342 259.471 368.533 257.643 C 355.364 227.865,350.386 205.621,349.521 172.684 C 349.049 154.703,348.351 149.331,344.862 136.832 C 339.701 118.346,339.042 112.071,340.877 98.882 C 342.549 86.869,342.148 79.066,339.377 69.649 C 334.419 52.801,334.477 53.170,334.279 37.312 C 333.971 12.751,335.497 10.795,351.757 14.925 C 355.685 15.922,356.925 16.102,359.904 16.110 C 363.712 16.120,363.222 16.248,371.406 13.089 C 376.072 11.288,378.430 11.231,384.665 12.769 C 390.255 14.147,400.001 14.607,400.000 13.492 C 399.999 13.364,397.591 13.252,394.648 13.243 C 389.766 13.229,388.933 13.140,385.144 12.221 C 377.549 10.379,376.011 10.478,369.010 13.254 C 361.699 16.154,360.183 16.225,351.179 14.094 C 341.851 11.886,339.782 11.989,336.894 14.807 C 334.226 17.409,333.866 18.950,333.524 29.233 C 332.986 45.409,333.823 53.244,337.348 65.048 C 341.612 79.325,342.099 84.880,340.275 98.403 C 338.460 111.860,339.011 118.306,343.288 133.653 C 347.887 150.157,348.377 153.613,348.879 173.120 C 349.713 205.479,353.913 224.637,366.975 255.662 L 368.739 259.853 367.836 261.636 C 366.997 263.293,366.932 263.690,366.920 267.269 C 366.898 273.738,366.297 274.168,356.869 274.455 C 347.730 274.734,346.335 275.211,335.149 281.891 C 331.901 283.830,327.516 286.341,325.405 287.469 C 323.293 288.598,320.487 290.157,319.169 290.934 C 314.848 293.482,313.909 293.658,303.195 293.921 C 293.266 294.166,289.228 294.727,284.505 296.518 C 283.626 296.852,282.864 297.124,282.811 297.124 C 282.758 297.125,283.094 296.628,283.557 296.021 C 284.994 294.137,285.333 292.380,285.101 288.030 C 284.855 283.440,285.042 282.860,288.133 278.594 C 291.386 274.105,291.677 271.867,289.919 264.856 C 288.097 257.592,288.520 253.707,291.633 249.115 C 292.613 247.669,294.017 245.584,294.753 244.481 C 299.159 237.881,298.049 230.123,292.131 226.167 C 291.463 225.721,291.445 225.455,291.086 211.019 C 289.308 139.511,287.337 104.369,283.867 82.290 C 282.831 75.694,282.720 76.309,285.158 75.120 C 291.321 72.115,303.183 72.097,309.792 75.082 L 311.756 75.969 312.255 74.167 C 312.934 71.712,313.406 68.598,313.450 66.294 L 313.485 64.377 314.331 66.988 C 315.401 70.295,315.407 70.300,316.630 68.640 C 319.272 65.051,321.180 59.585,321.595 54.414 C 321.813 51.701,321.871 51.538,323.173 50.000 C 327.390 45.017,330.032 38.288,330.032 32.529 C 330.032 31.106,331.054 26.143,333.562 15.385 C 336.703 1.915,337.188 -0.553,336.578 0.057 C 336.096 0.539,329.393 30.529,329.393 32.203 C 329.393 37.939,326.629 45.038,322.592 49.668 C 321.065 51.420,321.063 51.425,320.924 54.138 C 320.760 57.315,320.135 60.231,319.038 62.931 C 318.156 65.102,315.990 68.812,315.747 68.569 C 315.659 68.482,314.605 65.490,313.404 61.921 C 310.796 54.167,309.416 50.613,309.053 50.711 C 308.906 50.750,307.780 51.175,306.550 51.654 C 304.533 52.441,303.904 52.528,300.160 52.541 C 292.866 52.567,290.421 51.261,282.268 42.987 C 277.700 38.350,275.720 36.635,269.804 32.189 C 258.500 23.695,257.373 22.485,248.901 9.736 C 242.579 0.223,242.437 0.023,241.960 0.010 C 241.581 -0.000,251.956 15.775,254.788 19.516 C 257.513 23.116,261.642 26.855,269.015 32.399 C 275.103 36.978,277.075 38.686,281.949 43.599 C 290.260 51.979,292.538 53.189,300.000 53.189 C 303.722 53.189,304.576 53.089,306.230 52.459 C 307.284 52.057,308.351 51.699,308.600 51.663 C 309.104 51.590,311.836 58.621,312.485 61.661 C 313.072 64.412,312.263 73.955,311.353 75.005 C 311.312 75.051,310.503 74.734,309.553 74.299 C 303.165 71.376,290.679 71.553,284.561 74.653 C 282.628 75.633,282.902 76.057,281.619 70.102 C 275.968 43.883,267.049 29.577,253.436 24.893 C 247.628 22.895,244.355 23.943,239.956 29.209 C 235.264 34.827,232.040 34.278,230.491 27.598 C 229.203 22.043,227.040 20.153,218.592 17.195 C 207.417 13.282,202.009 8.921,199.958 2.170 C 199.388 0.294,198.722 -0.698,198.722 0.330 C 198.722 2.649,201.551 7.583,204.448 10.316 C 207.920 13.591,210.570 14.966,220.288 18.534 C 226.504 20.817,228.495 22.659,229.694 27.236 C 230.990 32.182,232.076 33.546,234.718 33.546 C 236.686 33.546,237.920 32.730,240.234 29.899 C 245.996 22.848,252.499 22.937,261.567 30.193 C 278.275 43.561,285.040 72.750,288.335 145.687 C 289.014 160.726,290.735 217.110,290.735 224.329 L 290.735 225.200 288.608 224.235 C 283.873 222.088,276.551 221.222,272.213 222.294 C 270.396 222.744,270.415 222.939,271.979 219.810 L 273.323 217.121 273.309 212.794 C 273.258 197.329,267.998 191.363,260.577 198.352 C 258.283 200.513,257.707 200.887,255.897 201.385 C 254.762 201.697,253.298 202.304,252.643 202.734 C 251.987 203.163,251.396 203.514,251.329 203.514 C 251.261 203.514,251.130 202.616,251.037 201.518 C 250.765 198.297,249.717 196.015,247.433 193.675 L 245.440 191.632 249.671 191.858 C 256.477 192.223,258.850 191.052,260.688 186.422 C 261.106 185.367,261.914 183.566,262.482 182.418 C 264.539 178.265,264.695 175.644,262.920 175.025 C 262.125 174.748,261.981 174.529,261.981 173.591 L 261.981 172.485 260.554 172.699 C 257.724 173.123,252.511 171.507,251.157 169.785 C 248.632 166.575,251.421 163.125,257.221 162.281 C 263.704 161.339,267.243 161.092,267.880 161.538 C 268.742 162.141,269.010 162.095,269.010 161.342 C 269.010 160.990,269.189 160.702,269.409 160.702 C 269.629 160.701,270.081 160.018,270.413 159.184 C 270.746 158.350,271.413 157.236,271.896 156.709 C 274.908 153.422,275.314 141.782,272.603 136.436 L 271.720 134.694 270.088 134.781 C 268.036 134.889,267.256 134.264,265.579 131.164 C 264.740 129.612,263.899 128.579,262.794 127.744 C 261.924 127.086,260.961 126.060,260.655 125.463 C 259.605 123.417,258.040 122.364,256.049 122.364 C 253.221 122.364,252.452 121.861,250.665 118.842 C 247.773 113.955,246.398 113.035,238.512 110.711 C 229.985 108.198,228.771 108.002,221.687 107.994 L 215.419 107.987 213.829 106.721 L 212.239 105.455 212.016 100.731 C 211.264 84.740,207.830 73.612,199.071 58.783 C 194.742 51.454,194.251 50.089,191.719 38.339 C 191.170 35.791,190.577 32.412,190.401 30.831 C 189.728 24.763,188.622 22.983,185.384 22.755 C 181.007 22.448,178.751 26.076,177.157 35.987 C 176.532 39.875,175.903 42.355,174.451 46.645 C 172.388 52.745,172.077 54.084,171.557 59.105 C 170.786 66.544,168.389 72.453,166.961 70.429 C 162.417 63.988,154.267 56.358,146.486 51.261 C 135.781 44.250,116.724 35.761,109.949 34.986 L 107.917 34.753 108.120 33.484 C 109.022 27.841,113.040 25.118,123.876 22.804 C 134.463 20.543,139.696 18.178,154.792 8.827 C 158.482 6.541,163.290 3.620,165.477 2.335 C 168.071 0.812,169.181 0.009,168.672 0.025 C 168.243 0.039,167.029 0.566,165.974 1.195 M187.703 24.380 C 188.931 25.608,189.294 26.789,189.760 31.070 C 189.946 32.784,190.453 35.731,190.886 37.620 C 191.320 39.509,192.052 42.780,192.515 44.888 C 193.616 49.914,194.903 53.024,198.166 58.551 C 202.058 65.143,202.654 66.248,204.321 69.968 C 208.576 79.460,210.959 90.056,211.326 101.116 L 211.474 105.588 213.143 107.027 L 214.813 108.466 222.023 108.645 C 229.939 108.841,229.874 108.830,239.457 111.699 C 246.517 113.813,246.817 114.050,251.255 121.005 C 252.127 122.370,253.532 123.003,255.695 123.003 C 257.767 123.003,258.859 123.738,260.209 126.042 C 260.670 126.829,261.456 127.684,261.955 127.942 C 263.169 128.569,264.375 130.049,265.516 132.309 C 266.630 134.517,267.609 135.240,269.781 135.460 C 274.260 135.914,275.429 151.952,271.312 156.468 C 270.792 157.037,270.189 157.933,269.972 158.458 L 269.576 159.412 268.886 158.388 C 267.121 155.769,264.773 155.229,259.394 156.206 C 257.390 156.570,254.154 156.995,252.203 157.152 C 248.410 157.456,247.815 157.658,245.882 159.303 C 245.199 159.885,243.754 160.655,242.672 161.016 C 239.425 162.096,238.627 162.964,238.203 165.877 C 237.734 169.108,238.937 170.927,241.544 170.927 C 243.388 170.927,243.944 171.338,245.000 173.486 C 246.266 176.063,247.407 176.546,251.917 176.417 C 253.850 176.361,257.228 176.290,259.425 176.257 L 263.419 176.198 263.356 177.579 C 263.317 178.421,262.744 180.166,261.885 182.052 C 261.111 183.752,260.205 185.789,259.872 186.579 C 258.143 190.669,256.860 191.236,249.601 191.123 C 243.659 191.030,242.854 191.195,244.649 192.139 C 249.549 194.718,251.990 202.489,249.075 206.230 C 248.069 207.522,245.472 212.306,244.986 213.763 C 244.916 213.973,244.523 213.912,243.923 213.599 C 241.979 212.586,240.640 212.918,237.725 215.136 L 235.993 216.454 231.974 216.454 C 224.803 216.454,220.786 220.280,218.562 229.227 C 217.533 233.368,216.102 235.835,212.347 239.946 C 205.266 247.698,204.041 249.658,201.279 257.650 C 196.264 272.158,189.751 274.402,153.994 273.938 C 136.510 273.711,137.877 273.980,133.913 269.987 C 130.162 266.208,129.490 265.942,124.526 266.281 C 121.790 266.467,120.404 266.370,116.289 265.705 C 108.545 264.451,108.086 264.425,104.121 265.007 C 95.375 266.289,93.300 265.532,86.239 258.483 C 77.735 249.992,77.831 242.781,86.592 232.071 C 88.519 229.716,89.698 227.847,91.232 224.716 C 93.070 220.964,93.613 220.171,96.333 217.262 C 100.000 213.339,100.557 212.295,102.227 206.224 C 103.750 200.688,104.704 198.773,107.556 195.527 C 108.714 194.209,111.865 190.460,114.558 187.196 C 125.327 174.144,127.733 171.999,138.179 166.134 C 147.266 161.032,149.897 158.884,153.203 153.864 C 155.128 150.940,156.404 149.787,159.425 148.243 C 165.540 145.116,167.089 141.021,162.695 139.595 C 159.834 138.668,158.784 137.136,157.968 132.703 C 156.628 125.417,155.483 123.506,150.932 120.956 C 145.902 118.137,144.743 116.875,141.664 110.863 C 139.688 107.003,138.270 105.589,134.653 103.873 C 130.703 101.998,129.828 101.337,127.182 98.229 C 125.914 96.740,123.554 94.037,121.937 92.223 C 104.531 72.688,93.494 49.089,97.942 40.916 C 101.413 34.539,109.100 33.954,121.241 39.142 C 146.103 49.766,160.285 60.226,168.501 73.999 C 169.327 75.384,171.285 78.315,172.852 80.511 C 178.166 87.960,179.169 90.606,179.516 98.083 C 179.791 104.006,179.961 104.434,183.583 108.284 C 186.561 111.450,187.886 112.191,190.920 112.389 C 193.252 112.542,196.805 111.808,196.805 111.173 C 196.805 110.766,196.616 110.781,194.758 111.345 C 190.557 112.620,188.201 111.891,184.494 108.169 C 180.619 104.280,180.431 103.836,180.152 97.923 C 179.804 90.570,178.708 87.538,174.070 81.107 C 171.254 77.203,168.051 72.251,168.051 71.803 C 168.051 71.652,168.473 70.997,168.989 70.349 C 170.796 68.077,171.546 65.354,172.374 58.051 C 172.890 53.496,173.441 51.320,175.667 45.048 C 176.579 42.479,177.217 39.836,177.789 36.262 C 178.725 30.404,179.510 27.752,180.859 25.890 C 182.880 23.100,185.783 22.460,187.703 24.380 M105.358 42.753 C 102.713 43.464,102.688 43.488,103.139 44.966 C 104.051 47.960,105.992 49.658,110.894 51.753 C 115.467 53.708,116.386 54.860,116.788 59.145 C 117.152 63.015,117.842 64.206,121.380 67.071 C 125.593 70.484,127.205 72.554,131.325 79.849 C 134.768 85.946,138.523 89.405,147.125 94.405 C 157.297 100.317,163.056 106.119,166.475 113.898 C 167.781 116.871,168.127 116.880,169.488 113.978 C 172.609 107.321,171.446 101.337,164.232 86.930 C 159.965 78.410,156.538 73.945,151.597 70.471 C 146.969 67.217,145.253 65.623,140.726 60.373 C 128.867 46.620,115.589 40.005,105.358 42.753 M116.147 43.806 C 126.172 46.937,131.828 51.017,141.129 61.827 C 145.037 66.369,145.828 67.088,151.683 71.417 C 157.617 75.805,162.552 83.380,167.884 96.281 C 170.866 103.497,171.113 110.939,168.494 114.655 L 167.960 115.413 166.328 112.252 C 162.210 104.274,158.022 100.165,147.692 93.965 C 137.714 87.976,135.336 85.702,130.990 77.992 C 127.958 72.611,125.391 69.401,121.927 66.656 C 118.456 63.905,117.962 63.103,117.545 59.534 C 116.938 54.332,116.023 53.187,110.627 50.870 C 106.265 48.998,102.501 45.294,103.721 44.075 C 105.172 42.624,111.897 42.478,116.147 43.806 M205.858 129.984 C 204.951 130.298,203.564 131.048,202.776 131.651 L 201.343 132.748 203.467 133.116 C 204.635 133.319,206.318 133.773,207.207 134.126 C 210.474 135.422,213.847 135.307,216.297 133.817 L 217.401 133.146 215.893 131.780 C 213.308 129.439,209.438 128.747,205.858 129.984 M261.382 138.061 C 260.116 138.462,259.458 138.819,259.644 139.005 C 259.830 139.191,260.650 139.061,261.811 138.662 C 265.014 137.560,267.796 137.893,268.853 139.506 C 269.514 140.516,270.054 140.474,269.587 139.449 C 268.642 137.375,265.323 136.813,261.382 138.061 M263.019 139.613 C 261.651 140.447,261.706 140.895,263.176 140.895 C 264.029 140.895,264.856 141.228,266.060 142.058 C 268.035 143.418,268.229 143.350,267.707 141.485 C 267.015 139.015,265.194 138.287,263.019 139.613 M266.466 156.715 C 267.341 157.168,269.010 158.935,269.010 159.409 C 269.010 159.550,268.922 160.103,268.815 160.638 L 268.620 161.612 267.137 160.718 L 265.655 159.824 258.946 160.082 C 251.429 160.371,250.564 160.522,248.219 161.965 L 246.566 162.982 245.642 162.098 L 244.719 161.213 246.409 159.563 L 248.099 157.914 251.446 157.684 C 253.286 157.558,256.518 157.114,258.626 156.697 C 262.662 155.900,264.898 155.905,266.466 156.715 M398.993 165.037 C 396.417 170.977,396.489 180.577,399.209 193.610 C 400.123 197.987,400.150 195.130,399.241 190.256 C 397.245 179.546,397.248 171.247,399.251 166.212 C 400.313 163.541,400.087 162.514,398.993 165.037 M190.096 171.437 C 190.096 172.395,192.667 177.153,194.265 179.152 C 199.716 185.971,206.264 188.710,216.613 188.502 C 228.876 188.255,232.942 188.344,234.970 188.905 C 236.899 189.438,237.280 189.431,236.932 188.869 C 236.369 187.957,230.632 187.440,224.303 187.731 C 211.850 188.305,208.820 188.011,203.885 185.753 C 198.052 183.083,193.085 177.901,191.129 172.444 C 190.589 170.938,190.096 170.457,190.096 171.437 M44.200 171.644 C 43.654 172.528,43.677 181.615,44.233 184.382 C 46.239 194.375,52.523 204.920,60.401 211.516 C 63.235 213.889,62.492 212.574,59.283 209.536 C 48.402 199.238,42.459 184.187,44.699 172.604 C 44.953 171.292,44.709 170.822,44.200 171.644 M261.661 174.121 L 261.661 175.399 260.009 175.399 C 259.100 175.399,257.123 175.631,255.616 175.914 C 253.029 176.399,250.158 176.364,247.975 175.821 C 247.310 175.656,247.252 175.511,247.445 174.479 C 247.724 172.986,247.544 173.047,249.885 173.657 C 252.192 174.258,257.004 174.090,259.469 173.321 C 261.572 172.665,261.661 172.698,261.661 174.121 M267.650 196.658 C 272.327 198.612,274.618 213.219,271.277 219.780 C 269.141 223.975,269.453 226.226,272.389 227.809 C 276.450 229.998,274.327 232.588,268.471 232.588 C 264.539 232.588,260.798 233.292,256.489 234.844 C 248.009 237.899,245.438 237.463,243.173 232.588 C 241.485 228.955,241.937 225.046,244.477 221.306 C 246.094 218.925,246.432 217.571,245.841 215.853 C 245.279 214.224,246.250 211.690,249.044 207.490 C 251.218 204.224,252.523 203.204,256.012 202.046 C 258.318 201.281,258.891 200.922,260.870 199.008 C 263.897 196.080,265.193 195.631,267.650 196.658 M244.281 214.824 C 245.911 216.454,245.820 218.065,243.938 220.931 C 240.501 226.164,240.763 232.240,244.576 235.755 C 247.210 238.184,248.348 238.168,256.265 235.598 C 262.014 233.732,264.559 233.243,268.563 233.233 C 275.084 233.217,277.484 229.641,272.615 227.193 C 270.688 226.224,269.605 223.178,271.166 223.119 C 271.474 223.108,272.935 222.923,274.413 222.709 C 283.290 221.423,293.848 225.986,296.134 232.096 C 297.743 236.396,296.805 240.289,292.710 246.306 C 287.821 253.491,287.183 256.923,289.232 265.016 C 290.996 271.982,290.755 273.838,287.509 278.293 C 284.409 282.547,284.305 282.888,284.406 288.413 C 284.547 296.110,283.064 297.771,272.077 302.219 C 269.811 303.136,265.426 305.042,262.333 306.454 C 245.785 314.006,242.064 315.568,234.345 318.199 C 227.867 320.408,221.992 322.024,209.904 324.920 C 196.652 328.096,194.504 328.665,180.990 332.585 C 154.578 340.247,142.531 342.698,124.456 344.090 C 120.090 344.426,119.505 344.532,119.893 344.920 C 120.212 345.238,135.273 343.879,138.465 343.244 C 140.191 342.900,137.100 348.681,131.747 355.805 C 129.920 358.235,127.734 361.563,126.889 363.199 L 125.351 366.175 122.979 363.418 C 112.588 351.337,110.281 340.805,115.392 328.784 C 118.847 320.657,116.801 317.592,106.550 315.538 C 99.902 314.206,96.988 312.610,94.528 308.955 C 90.568 303.073,90.246 291.629,93.809 283.414 C 94.863 280.984,94.673 280.939,97.364 284.265 C 101.363 289.209,102.297 289.611,106.080 288.011 C 107.217 287.530,110.288 286.370,112.905 285.433 C 119.092 283.217,120.355 282.409,124.874 277.778 C 130.342 272.174,133.023 271.111,136.395 273.208 L 138.121 274.281 150.930 274.537 C 172.301 274.965,181.768 274.298,189.457 271.825 C 196.384 269.597,198.554 267.254,201.563 258.753 C 204.658 250.009,205.757 248.119,211.132 242.292 C 217.072 235.853,217.860 234.569,219.313 228.958 C 221.449 220.706,225.316 217.032,231.712 217.179 C 235.732 217.272,236.359 217.112,238.271 215.503 C 240.786 213.387,242.635 213.178,244.281 214.824 M25.080 258.530 C 22.425 259.904,20.589 260.325,15.628 260.698 C 9.259 261.177,6.885 261.947,4.149 264.419 C 2.105 266.266,0.037 270.288,1.132 270.288 C 1.388 270.288,1.597 270.067,1.597 269.798 C 1.597 267.680,5.243 263.736,8.242 262.609 C 11.210 261.493,21.589 260.490,20.396 261.433 C 15.725 265.128,10.983 271.947,10.072 276.278 C 9.750 277.806,10.374 277.547,10.841 275.958 C 12.866 269.070,18.529 262.643,25.799 258.985 C 27.073 258.344,28.115 257.749,28.115 257.664 C 28.115 257.260,26.821 257.630,25.080 258.530 M129.214 267.126 C 130.035 267.354,131.184 268.159,132.520 269.441 L 134.567 271.406 132.929 271.644 C 130.261 272.032,128.688 273.091,124.209 277.513 C 119.422 282.239,118.534 282.789,111.981 285.077 C 109.696 285.874,106.997 286.899,105.981 287.353 C 102.609 288.862,101.650 288.508,98.469 284.584 C 97.466 283.346,96.304 281.915,95.887 281.402 L 95.129 280.470 96.295 278.778 C 99.997 273.403,105.768 269.624,111.915 268.550 C 113.357 268.298,115.256 267.914,116.134 267.697 C 117.560 267.344,121.841 266.981,126.358 266.830 C 127.236 266.801,128.522 266.934,129.214 267.126 M333.387 288.238 C 339.296 289.717,343.601 294.134,350.301 305.591 C 354.859 313.386,356.120 315.079,362.137 321.486 C 373.540 333.626,376.472 334.363,394.135 329.522 C 396.317 328.924,398.251 328.435,398.433 328.435 C 398.907 328.435,396.500 331.400,391.690 336.741 C 385.373 343.757,384.822 345.227,385.167 354.153 C 385.457 361.644,384.520 364.901,381.689 366.244 C 379.060 367.492,377.269 366.774,372.771 362.670 C 368.071 358.382,361.058 354.633,357.738 354.633 C 356.267 354.633,357.637 354.284,362.160 353.509 C 368.750 352.379,382.016 349.081,382.693 348.404 C 383.220 347.877,382.162 347.983,379.825 348.691 C 371.768 351.133,360.636 353.360,353.195 354.018 C 348.602 354.425,345.130 354.303,333.067 353.308 C 318.252 352.088,310.280 352.639,302.077 355.451 C 298.831 356.563,298.195 356.671,293.770 356.861 C 287.021 357.151,286.746 357.322,280.373 365.181 C 269.946 378.038,261.206 383.943,251.096 384.961 C 245.028 385.571,198.709 386.748,192.971 386.437 C 188.427 386.191,183.309 385.621,182.983 385.325 C 182.849 385.203,184.142 384.842,185.858 384.522 C 187.653 384.188,190.642 383.281,192.897 382.386 L 196.816 380.831 201.842 380.817 C 207.256 380.802,224.168 379.772,224.503 379.437 C 224.962 378.978,224.057 378.991,215.335 379.571 C 210.327 379.904,204.067 380.180,201.424 380.184 L 196.618 380.192 192.957 381.676 C 187.197 384.011,181.125 385.096,177.405 384.455 C 175.440 384.117,172.927 384.000,169.010 384.064 C 148.968 384.392,147.381 383.999,148.581 378.996 C 148.876 377.767,148.904 377.005,148.678 376.406 L 148.358 375.558 153.332 376.137 C 162.748 377.233,163.474 377.090,181.220 370.634 C 187.947 368.186,195.790 365.491,198.650 364.643 C 204.394 362.940,204.512 362.795,200.981 361.768 C 197.984 360.896,196.047 361.285,191.232 363.729 C 187.392 365.678,186.831 365.869,184.173 366.140 C 180.737 366.490,179.834 366.788,175.237 369.082 C 169.067 372.162,166.773 372.694,157.668 373.155 C 154.153 373.333,149.929 373.699,148.279 373.968 C 143.907 374.682,143.056 373.846,143.761 369.532 C 144.331 366.052,145.144 364.946,150.449 360.437 C 151.741 359.338,152.119 358.794,152.278 357.801 C 152.388 357.113,152.513 356.550,152.557 356.550 C 152.600 356.550,153.264 356.787,154.033 357.078 C 158.636 358.816,163.398 357.670,174.564 352.139 C 178.625 350.126,183.674 347.713,185.783 346.777 C 188.634 345.510,189.615 344.927,189.610 344.502 C 189.589 342.750,179.420 345.429,171.565 349.255 C 163.751 353.061,159.601 354.389,154.211 354.804 L 151.597 355.006 150.700 353.854 C 148.528 351.067,148.349 348.167,150.132 344.615 C 151.194 342.497,152.771 340.575,153.445 340.575 C 154.516 340.575,169.019 336.758,179.393 333.746 C 194.831 329.263,198.923 328.169,209.425 325.717 C 230.391 320.823,238.564 318.050,257.183 309.513 C 262.546 307.054,269.515 303.981,272.670 302.682 C 275.826 301.384,279.132 299.845,280.018 299.262 C 284.556 296.276,291.378 294.897,303.195 294.578 C 314.909 294.261,314.871 294.269,321.246 290.583 C 326.427 287.588,328.890 287.112,333.387 288.238 M85.654 292.560 C 84.801 298.294,84.414 299.281,82.338 301.008 C 78.516 304.189,73.829 305.829,68.850 305.730 C 65.469 305.663,65.122 305.704,65.974 306.070 C 69.159 307.439,77.562 305.509,81.470 302.512 C 83.728 300.780,83.733 300.781,83.062 302.729 C 81.385 307.604,77.420 314.486,73.989 318.477 C 72.028 320.757,72.134 321.370,74.122 319.240 C 80.144 312.784,85.166 301.592,86.445 291.773 C 86.799 289.056,86.066 289.785,85.654 292.560 M85.770 304.712 C 83.571 315.191,77.339 326.254,68.928 334.612 C 64.776 338.737,64.107 339.953,67.777 336.704 C 74.240 330.981,80.268 322.236,83.689 313.622 C 84.577 311.387,86.581 304.785,86.581 304.098 C 86.581 303.437,85.935 303.927,85.770 304.712 M396.903 335.962 C 393.308 341.007,389.357 347.471,389.543 348.005 C 389.619 348.224,390.098 347.701,390.607 346.844 C 391.779 344.872,397.306 336.478,398.877 334.283 C 399.531 333.371,400.009 332.455,399.940 332.250 C 399.872 332.044,398.505 333.714,396.903 335.962 M185.623 346.080 C 183.954 346.816,179.137 349.128,174.920 351.217 C 163.119 357.062,159.232 358.033,154.179 356.400 L 152.287 355.789 156.096 355.236 C 161.269 354.485,164.300 353.468,171.246 350.154 C 177.035 347.392,180.501 346.118,184.665 345.225 C 188.618 344.376,188.905 344.632,185.623 346.080 M200.799 362.439 C 201.600 362.695,201.898 362.912,201.597 363.020 C 201.334 363.114,198.530 364.012,195.367 365.014 C 192.204 366.017,185.375 368.388,180.192 370.284 C 163.631 376.342,163.124 376.446,154.509 375.567 C 146.118 374.712,146.802 374.374,158.105 373.791 C 167.149 373.325,169.420 372.755,176.907 369.068 C 180.082 367.504,181.214 367.107,182.977 366.939 C 186.845 366.571,188.353 366.135,190.923 364.645 C 195.213 362.159,197.987 361.539,200.799 362.439 M133.546 367.833 C 133.546 370.067,134.391 372.286,136.387 375.296 C 138.020 377.757,139.297 380.476,139.297 381.490 C 139.297 381.665,138.881 381.500,138.372 381.124 C 134.989 378.623,130.799 380.894,127.319 387.114 C 125.463 390.432,123.349 392.834,121.565 393.650 L 120.288 394.235 121.355 394.242 C 122.815 394.252,125.885 391.140,127.637 387.876 C 130.817 381.951,134.520 379.576,137.628 381.471 C 139.797 382.793,139.739 384.516,137.398 388.339 C 135.295 391.774,134.838 394.249,136.307 394.249 C 136.725 394.249,136.746 394.161,136.425 393.773 C 135.856 393.089,136.253 391.444,137.433 389.593 C 140.926 384.113,140.857 380.723,137.139 375.321 C 135.074 372.321,134.211 370.164,134.196 367.971 C 134.190 367.137,134.042 366.454,133.866 366.454 C 133.690 366.454,133.546 367.075,133.546 367.833 M165.491 388.738 C 165.489 389.924,165.284 391.658,165.036 392.591 C 164.496 394.620,165.101 394.796,165.707 392.786 C 166.176 391.231,166.257 386.581,165.815 386.581 C 165.634 386.581,165.494 387.516,165.491 388.738 " stroke="none" fill="#1a1a1a" fill-rule="evenodd"></path></g></svg>